<?xml version="1.0" encoding="iso-8859-1"?>
<!-- Generator: Adobe Illustrator 19.0.0, SVG Export Plug-In . SVG Version: 6.00 Build 0)  -->
<svg version="1.1" id="Layer_1" xmlns="http://www.w3.org/2000/svg" xmlns:xlink="http://www.w3.org/1999/xlink" x="0px" y="0px"
	 viewBox="0 0 496 496" style="enable-background:new 0 0 496 496;" xml:space="preserve">
<g>
	<g>
		<g>
			<path d="M423.392,296H456c22.056,0,40-17.944,40-40V128c0-22.056-17.944-40-40-40h-42.384c-36-53.064-96.8-88-165.616-88
				C154.04,0,75.048,65.152,53.712,152.64C48,147.32,40.4,144,32,144c-17.648,0-32,14.352-32,32v48c0,17.648,14.352,32,32,32
				c8.4,0,16-3.32,21.712-8.64C68.736,308.976,112.336,359.504,169.656,384H104C46.656,384,0,430.656,0,488v8h496v-8
				c0-57.344-46.656-104-104-104h-65.656C367.68,366.336,401.888,335.136,423.392,296z M48,224c0,8.824-7.176,16-16,16
				s-16-7.176-16-16v-48c0-8.824,7.176-16,16-16s16,7.176,16,16V224z M240,16.2v100.344
				c-53.144,50.608-143.288,52.76-173.248,51.952C81.304,84.56,152.872,19.952,240,16.2z M240,480H16.36
				c4.056-44.792,41.808-80,87.64-80h20.112c8.736,10.24,39.536,37.912,115.888,39.784V480z M240,423.792
				c-49.048-1.28-77.08-13.808-91.632-23.792H240V423.792z M240.016,383.792C142.24,379.592,64,298.776,64,200
				c0-5.224,0.272-10.376,0.704-15.488c3.376,0.128,7.528,0.232,12.376,0.232c36.432,0,110.48-5.744,162.928-47.128v198.088
				c-50.6-2.968-64.024-33.376-64.592-34.736l-14.832,6c0.712,1.768,17.488,41.48,79.432,44.712V383.792z M456,104
				c10.416,0,19.216,6.712,22.528,16H464v16h16v16h-16v16h16v16h-16v16h16v16h-16v16h16v16h-16v16h14.528
				c-3.312,9.288-12.112,16-22.528,16h-24.752C441.992,255.48,448,228.44,448,200c0-34.768-8.936-67.488-24.608-96H456z M256,16.2
				c13.776,0.592,27.16,2.712,40,6.192V48h-40V16.2z M256,64h40v16h-40V64z M256,96h40v12c0,11.032-8.976,20-20,20h-20V96z M256,144
				h20c19.848,0,36-16.152,36-36V27.496C382,53.552,432,121.04,432,200c0,28.656-6.592,55.8-18.328,80H336
				c-22.056,0-40,17.944-40,40v57.608c-12.84,3.472-26.224,5.6-40,6.192V144z M360,400h32c45.832,0,83.584,35.208,87.64,80H360V400z
				 M344,400v16h-48v16h48v16h-48v16h48v16h-88v-80H344z M312,372.504V320c0-13.232,10.768-24,24-24h68.896
				C383.504,330.848,350.832,358.048,312,372.504z"/>
			<rect x="376" y="416" width="16" height="16"/>
			<rect x="408" y="416" width="16" height="16"/>
			<rect x="184" y="184" width="16" height="40"/>
			<path d="M344,264c30.88,0,56-25.128,56-56s-25.12-56-56-56s-56,25.128-56,56S313.12,264,344,264z M344,248
				c-10.128,0-19.28-3.904-26.336-10.128C322.6,234.928,330.784,232,344,232c13.24,0,21.432,2.944,26.344,5.856
				C363.288,244.088,354.128,248,344,248z M344,168c10.128,0,19.28,3.904,26.336,10.128C365.4,181.072,357.216,184,344,184
				c-13.24,0-21.432-2.944-26.344-5.856C324.712,171.912,333.872,168,344,168z M307.96,190.952C315.168,195.656,326.52,200,344,200
				c17.48,0,28.832-4.344,36.04-9.048C382.504,196.144,384,201.88,384,208s-1.496,11.856-3.96,17.048
				C372.832,220.344,361.48,216,344,216c-17.48,0-28.832,4.344-36.04,9.048C305.496,219.856,304,214.12,304,208
				S305.496,196.144,307.96,190.952z"/>
		</g>
	</g>
</g>
<g>
</g>
<g>
</g>
<g>
</g>
<g>
</g>
<g>
</g>
<g>
</g>
<g>
</g>
<g>
</g>
<g>
</g>
<g>
</g>
<g>
</g>
<g>
</g>
<g>
</g>
<g>
</g>
<g>
</g>
</svg>
